<svg width="49" height="48" viewBox="0 0 49 48" fill="none" xmlns="http://www.w3.org/2000/svg">
<g clip-path="url(#clip0_3120_79620)">
<path fill-rule="evenodd" clip-rule="evenodd" d="M16.5 24C15.9477 24 15.5 23.5523 15.5 23V21C15.5 20.4477 15.9477 20 16.5 20H32.5C33.0523 20 33.5 20.4477 33.5 21V23C33.5 23.5523 33.0523 24 32.5 24H26.5L26.5007 32.3417C28.2053 32.9444 29.5563 34.2956 30.1587 36.0003L37.0352 35.9999C37.7268 34.8043 39.0195 34 40.5 34C42.7091 34 44.5 35.7909 44.5 38C44.5 40.2091 42.7091 42 40.5 42C39.0199 42 37.7275 41.1961 37.0358 40.0011L30.1583 40.0007C29.3345 42.3307 27.1122 44 24.5 44C21.8878 44 19.6655 42.3307 18.8417 40.0007L11.9642 40.0011C11.2725 41.1961 9.98011 42 8.5 42C6.29086 42 4.5 40.2091 4.5 38C4.5 35.7909 6.29086 34 8.5 34C9.98052 34 11.2732 34.8043 11.9648 35.9999L18.8413 36.0003C19.4438 34.2952 20.7952 32.9438 22.5003 32.3413L22.5 24H16.5ZM24.5 36C23.3954 36 22.5 36.8954 22.5 38C22.5 39.1046 23.3954 40 24.5 40C25.6046 40 26.5 39.1046 26.5 38C26.5 36.8954 25.6046 36 24.5 36ZM24.5 4C30.4836 4 35.6206 7.90213 37.2533 13.3572C41.922 14.0396 45.5 17.9293 45.5 22.6255C45.5 27.8029 41.1511 32 35.7865 32H31.5V28H35.713C38.7986 28 41.3 25.5829 41.3 22.6012C41.3 19.6195 38.7986 17.2024 35.713 17.2024C35.6664 17.2024 35.6198 17.2029 35.5734 17.204L33.8018 17.2457L33.5184 15.5554C32.7908 11.2162 28.9797 8 24.5 8C20.0203 8 16.2092 11.2162 15.4816 15.5554L15.1982 17.2457L13.4266 17.204C13.3802 17.2029 13.3336 17.2024 13.287 17.2024C10.2014 17.2024 7.7 19.6195 7.7 22.6012C7.7 25.5829 10.2014 28 13.287 28H18.5V32H12.2303V31.9526C7.32746 31.477 3.5 27.4826 3.5 22.6255C3.5 17.9293 7.07804 14.0396 11.7467 13.3572C13.3794 7.90213 18.5164 4 24.5 4Z" fill="#42464E"/>
</g>
<defs>
<clipPath id="clip0_3120_79620">
<rect width="48" height="48" fill="white" transform="translate(0.5)"/>
</clipPath>
</defs>
</svg>
