<svg width="48" height="48" viewBox="0 0 48 48" fill="none" xmlns="http://www.w3.org/2000/svg">
<path fill-rule="evenodd" clip-rule="evenodd" d="M24 3C24.3506 3 24.6872 3.1236 24.9487 3.3487L37.4487 13.8487C37.7981 14.1488 38 14.5847 38 15.0455V27C38 34.1797 32.0899 40.5039 24.5765 42.9348C24.2025 43.0551 23.7975 43.0551 23.4235 42.9348C15.9101 40.5039 10 34.1797 10 27V15.0455C10 14.5847 10.2019 14.1488 10.5513 13.8487L23.0513 3.3487C23.3128 3.1236 23.6494 3 24 3ZM14 16.1364V27C14 32.3203 18.4899 37.2961 24 39.3152C29.5101 37.2961 34 32.3203 34 27V16.1364L24 7.73636L14 16.1364ZM17 20H22V17H26V20H31V24H26V28H31V32H26V35H22V32H17V28H22V24H17V20Z" fill="#42464E"/>
</svg>
