<svg width="49" height="48" viewBox="0 0 49 48" fill="none" xmlns="http://www.w3.org/2000/svg">
<path d="M34.9311 39.77L25.6793 44.6394C25.352 44.8918 24.9476 45.043 24.4997 45.0294C24.0517 45.043 23.6473 44.8918 23.32 44.6394L14.0682 39.77C11.7084 38.528 13.5714 34.9883 15.9311 36.2303C18.2909 37.4723 16.4279 41.012 14.0682 39.77L4.56816 34.77C2.20838 33.528 4.07136 29.9883 6.43115 31.2303L15.9311 36.2303L24.4997 40.74L33.0682 36.2303C35.4279 34.9883 37.2909 38.528 34.9311 39.77L33.0682 36.2303L34.9311 39.77ZM14.0682 39.77L15.9311 36.2303L14.0682 39.77ZM34.9311 30.77L25.6793 35.6394C25.352 35.8918 24.9476 36.043 24.4997 36.0294C24.0517 36.043 23.6473 35.8918 23.32 35.6394L14.0682 30.77C11.7084 29.528 13.5714 25.9883 15.9311 27.2303C18.2909 28.4723 16.4279 32.012 14.0682 30.77L4.56816 25.77C2.20838 24.528 4.07136 20.9883 6.43115 22.2303L15.9311 27.2303L24.4997 31.74L33.0682 27.2303C35.4279 25.9883 37.2909 29.528 34.9311 30.77L33.0682 27.2303L34.9311 30.77ZM14.0682 30.77L15.9311 27.2303L14.0682 30.77ZM33.0682 27.2303L42.5682 22.2303C44.9279 20.9883 46.7909 24.528 44.4311 25.77L34.9311 30.77C32.5714 32.012 30.7084 28.4723 33.0682 27.2303ZM33.0682 36.2303L42.5682 31.2303C44.9279 29.9883 46.7909 33.528 44.4311 34.77L34.9311 39.77C32.5714 41.012 30.7084 37.4723 33.0682 36.2303ZM25.4574 3.52253L44.8902 14.1222C45.0587 14.2142 45.1973 14.3527 45.2892 14.5213C45.5537 15.0061 45.375 15.6136 44.8902 15.878L25.4574 26.4778C24.8604 26.8034 24.1389 26.8034 23.5419 26.4778L4.10913 15.878C3.62428 15.6136 3.44562 15.0061 3.71009 14.5213C3.80203 14.3527 3.94056 14.2142 4.10913 14.1222L23.5419 3.52253C24.1389 3.19692 24.8604 3.19692 25.4574 3.52253ZM10.853 15.0001L24.4997 22.4438L38.1463 15.0001L24.4997 7.5565L10.853 15.0001Z" fill="#41464F"/>
</svg>
