<svg width="48" height="48" viewBox="0 0 48 48" fill="none" xmlns="http://www.w3.org/2000/svg">
<g clip-path="url(#clip0_3120_86772)">
<path fill-rule="evenodd" clip-rule="evenodd" d="M24 2C36.1503 2 46 11.8497 46 24C46 36.1503 36.1503 46 24 46C11.8497 46 2 36.1503 2 24C2 11.8497 11.8497 2 24 2ZM24 6C14.0589 6 6 14.0589 6 24C6 33.9411 14.0589 42 24 42C33.9411 42 42 33.9411 42 24C42 14.0589 33.9411 6 24 6ZM25 21C25.5523 21 26 21.4477 26 22V31H27.625C28.1773 31 28.625 31.4477 28.625 32V34.125C28.625 34.6773 28.1773 35.125 27.625 35.125H20C19.4477 35.125 19 34.6773 19 34.125V32C19 31.4477 19.4477 31 20 31H22V25.125H21C20.4477 25.125 20 24.6773 20 24.125V22C20 21.4477 20.4477 21 21 21H25ZM25 13C25.5523 13 26 13.4477 26 14V17C26 17.5523 25.5523 18 25 18H22C21.4477 18 21 17.5523 21 17V14C21 13.4477 21.4477 13 22 13H25Z" fill="#42464E"/>
</g>
<defs>
<clipPath id="clip0_3120_86772">
<rect width="48" height="48" fill="white"/>
</clipPath>
</defs>
</svg>
