<svg width="48" height="48" viewBox="0 0 48 48" fill="none" xmlns="http://www.w3.org/2000/svg">
<path fill-rule="evenodd" clip-rule="evenodd" d="M26 4V7H30C31.1046 7 32 7.89543 32 9V11H36C37.1046 11 38 11.8954 38 13V25C38 26.1046 37.1046 27 36 27H34V29.4C34 29.7314 33.8314 30.0391 33.5528 30.2112L24.5528 35.7112C24.214 35.9183 23.786 35.9183 23.4472 35.7112L14.4472 30.2112C14.1686 30.0391 14 29.7314 14 29.4V27H12C10.8954 27 10 26.1046 10 25V13C10 11.8954 10.8954 11 12 11H16V9C16 7.89543 16.8954 7 18 7H22V4H26ZM30 11V13H34V23H30V25H24.5528H23.4472H18V23H14V13H18V11H30ZM20 16C18.8954 16 18 16.8954 18 18C18 19.1046 18.8954 20 20 20C21.1046 20 22 19.1046 22 18C22 16.8954 21.1046 16 20 16ZM28 16C26.8954 16 26 16.8954 26 18C26 19.1046 26.8954 20 28 20C29.1046 20 30 19.1046 30 18C30 16.8954 29.1046 16 28 16ZM8 29V35L24 44L40 35V29L24 38L8 29Z" fill="#42464E"/>
</svg>
