<svg width="48" height="48" viewBox="0 0 48 48" fill="none"
	xmlns="http://www.w3.org/2000/svg">
	<path fill-rule="evenodd" clip-rule="evenodd" d="M45 24C45 12.402 35.598 3 24 3C12.402 3 3 12.402 3 24C3 35.598 12.402 45 24 45C35.598 45 45 35.598 45 24ZM31.3287 17.1839L32.4778 18.148C33.1127 18.6802 33.1954 19.6264 32.6629 20.261C32.6629 20.2611 32.6628 20.2612 32.6624 20.261L23.641 31.0064L22.6128 32.2435C22.0833 32.8806 21.1376 32.9679 20.5005 32.4384L20.4889 32.4287L20.4771 32.4185L18.367 30.5907L18.2187 30.4663L18.2207 30.464L14.5099 27.2496C13.8837 26.7071 13.8158 25.7598 14.3582 25.1337L14.3773 25.1121L15.3837 23.9943C15.9293 23.3884 16.859 23.3292 17.477 23.8611L21.1268 27.0025L29.2152 17.3685C29.7481 16.7344 30.694 16.6518 31.3287 17.1839Z" fill="#42464E"/>
</svg>
