<svg width="49" height="48" viewBox="0 0 49 48" fill="none" xmlns="http://www.w3.org/2000/svg">
<g clip-path="url(#clip0_3120_79540)">
<path fill-rule="evenodd" clip-rule="evenodd" d="M24.5 2C36.6503 2 46.5 11.8497 46.5 24C46.5 24.6744 46.4697 25.3417 46.4103 26.0007L42.3901 26.0004C42.4627 25.3436 42.5 24.6762 42.5 24C42.5 14.0589 34.4411 6 24.5 6C14.5589 6 6.5 14.0589 6.5 24C6.5 33.9411 14.5589 42 24.5 42C25.1762 42 25.8436 41.9627 26.5004 41.8901L26.5007 45.9103C25.8417 45.9697 25.1744 46 24.5 46C12.3497 46 2.5 36.1503 2.5 24C2.5 11.8497 12.3497 2 24.5 2ZM33.6652 29.552C33.9973 29.0165 34.7198 28.8403 35.279 29.1583L45.9234 35.2133C46.1628 35.3495 46.344 35.5624 46.435 35.8143C46.6475 36.4029 46.3217 37.0452 45.7069 37.2487L41.9358 38.4979L45.0083 43.5944C45.3334 44.1337 45.1404 44.8235 44.5772 45.1348L43.2862 45.8487C42.7229 46.1601 42.0028 45.9754 41.6776 45.436L38.6051 40.3395L35.5919 42.8409C35.3813 43.0158 35.1128 43.1132 34.8341 43.1165C34.1838 43.1235 33.6506 42.6245 33.643 42.0017L33.5 30.1409C33.4975 29.9339 33.5547 29.73 33.6652 29.552ZM26.5 15C26.5 14.4477 26.0523 14 25.5 14H23.5C22.9477 14 22.5 14.4477 22.5 15V22H15.5C14.9477 22 14.5 22.4477 14.5 23V25C14.5 25.5523 14.9477 26 15.5 26H22.5V33C22.5 33.5523 22.9477 34 23.5 34H25.5C26.0523 34 26.5 33.5523 26.5 33V26H33.5C34.0523 26 34.5 25.5523 34.5 25V23C34.5 22.4477 34.0523 22 33.5 22H26.5V15Z" fill="#42464E"/>
</g>
<defs>
<clipPath id="clip0_3120_79540">
<rect width="48" height="48" fill="white" transform="translate(0.5)"/>
</clipPath>
</defs>
</svg>
