<svg width="40" height="40" viewBox="0 0 40 40" fill="none" xmlns="http://www.w3.org/2000/svg">
<path fill-rule="evenodd" clip-rule="evenodd" d="M36.9705 3.02987C40.9448 7.00416 39.7716 13.335 35.4705 20.0002C39.7716 26.6659 40.9448 32.9967 36.9705 36.971C32.9962 40.9453 26.6654 39.7721 20.0002 35.4709C13.3345 39.7721 7.00367 40.9453 3.02938 36.971C-0.944902 32.9967 0.228268 26.6659 4.52943 20.0006C0.228268 13.335 -0.944902 7.00416 3.02938 3.02987C7.00367 -0.944414 13.3345 0.228756 19.9997 4.52992C26.6654 0.228756 32.9962 -0.944414 36.9705 3.02987ZM32.9486 23.5055L32.8842 23.5842C31.5739 25.2295 30.0977 26.8732 28.4852 28.4857C26.8469 30.1241 25.1763 31.6217 23.5046 32.9476C28.2783 35.7099 32.153 36.1317 34.1421 34.1426C36.1312 32.1534 35.7094 28.2788 32.9486 23.5055ZM6.97174 23.644L7.052 23.5041C8.37808 25.1761 9.876 26.8471 11.5147 28.4857C13.1532 30.1243 14.8241 31.6221 16.4953 32.9488C11.7218 35.7098 7.84701 36.1318 5.85781 34.1426C3.88795 32.1727 4.28257 28.3537 6.97174 23.644ZM19.9997 9.38741L19.9592 9.41824C18.1546 10.7754 16.2684 12.4183 14.3431 14.3436C12.4035 16.2832 10.7506 18.1831 9.38758 19.9999C10.75 21.8171 12.4032 23.7174 14.3431 25.6573C16.2827 27.5969 18.1826 29.2498 19.9994 30.6128C21.8166 29.2503 23.7169 27.5972 25.6568 25.6573C27.5967 23.7174 29.2498 21.8171 30.613 20.0001C29.2493 18.1831 27.5964 16.2832 25.6568 14.3436C23.7169 12.4036 21.8166 10.7505 19.9997 9.38741ZM23.9999 20.0004C23.9999 17.7913 22.2091 16.0004 19.9999 16.0004C17.7908 16.0004 15.9999 17.7913 15.9999 20.0004C15.9999 22.2096 17.7908 24.0004 19.9999 24.0004C22.2091 24.0004 23.9999 22.2096 23.9999 20.0004ZM5.85781 5.8583C3.86861 7.84749 4.29055 11.7223 7.0516 16.4958C8.37823 14.8246 9.87609 13.1537 11.5147 11.5152C13.1272 9.90267 14.7709 8.42646 16.4161 7.11617L16.4953 7.05209C11.7218 4.29104 7.84701 3.8691 5.85781 5.8583ZM23.5036 7.05249L23.6435 6.97223C28.3533 4.28306 32.1722 3.88844 34.1421 5.8583C36.1313 7.84749 35.7093 11.7223 32.9477 16.4965C31.6217 14.8246 30.1238 13.1537 28.4852 11.5152C26.8466 9.87649 25.1756 8.37857 23.5036 7.05249Z" fill="#42464E"/>
</svg>
