<svg width="48" height="48" viewBox="0 0 48 48" fill="none"
	xmlns="http://www.w3.org/2000/svg">
	<path fill-rule="evenodd" clip-rule="evenodd" d="M45 24C45 12.402 35.5981 3 24 3C12.402 3 3 12.402 3 24C3 35.5981 12.402 45 24 45C35.5981 45 45 35.5981 45 24ZM31.9762 17.5565L30.4913 16.0716C30.0227 15.6029 29.2629 15.6029 28.7942 16.0716L24.0188 20.8441L19.2483 16.0733C18.7797 15.6047 18.0199 15.6047 17.5512 16.0733L16.0663 17.5582C15.5977 18.0269 15.5977 18.7866 16.0663 19.2553L20.8358 24.0271L16.0663 28.7995C15.5977 29.2681 15.5977 30.0279 16.0663 30.4965L17.5512 31.9815C18.0199 32.4501 18.7797 32.4501 19.2483 31.9815L24.0188 27.2071L28.7942 31.9832C29.2629 32.4518 30.0227 32.4518 30.4913 31.9832L31.9762 30.4983C32.4449 30.0296 32.4449 29.2698 31.9762 28.8012L27.2018 24.0271L31.9762 19.2535C32.4449 18.7849 32.4449 18.0251 31.9762 17.5565Z" fill="#42464E"/>
</svg>
