<svg xmlns="http://www.w3.org/2000/svg" width="1060" height="610" viewBox="0 0 1060 610">
  <defs>
    <style>
      text { font-family: 'Arial', 'Helvetica Neue', sans-serif; }
    </style>
  </defs>
  <rect x="0" y="0" width="1060" height="610" rx="20" ry="20" fill="#EAF0FB"/>
  <rect x="70" y="20" width="175" height="48" rx="8" ry="8" fill="#FFFDE7" stroke="#E8D98E" stroke-width="1.5"/>
<text x="157.5" y="45" text-anchor="middle" font-size="14px" font-weight="bold" font-style="normal" fill="#1A1A1A" font-family="Arial, Helvetica, sans-serif">vArmor Policy</text>
  <circle cx="530.0" cy="44" r="24" fill="#326CE5"/>
<circle cx="530.0" cy="44" r="8.4" fill="none" stroke="#FFFFFF" stroke-width="1.8"/>
<circle cx="530.0" cy="44" r="2.9" fill="#FFFFFF"/>
<line x1="530.0" y1="35.6" x2="530.0" y2="27.7" stroke="#FFFFFF" stroke-width="1.8"/>
<circle cx="530.0" cy="27.7" r="2.5" fill="#FFFFFF"/>
<line x1="536.6" y1="38.8" x2="542.8" y2="33.8" stroke="#FFFFFF" stroke-width="1.8"/>
<circle cx="542.8" cy="33.8" r="2.5" fill="#FFFFFF"/>
<line x1="538.2" y1="45.9" x2="545.9" y2="47.6" stroke="#FFFFFF" stroke-width="1.8"/>
<circle cx="545.9" cy="47.6" r="2.5" fill="#FFFFFF"/>
<line x1="533.6" y1="51.6" x2="537.1" y2="58.7" stroke="#FFFFFF" stroke-width="1.8"/>
<circle cx="537.1" cy="58.7" r="2.5" fill="#FFFFFF"/>
<line x1="526.4" y1="51.6" x2="522.9" y2="58.7" stroke="#FFFFFF" stroke-width="1.8"/>
<circle cx="522.9" cy="58.7" r="2.5" fill="#FFFFFF"/>
<line x1="521.8" y1="45.9" x2="514.1" y2="47.6" stroke="#FFFFFF" stroke-width="1.8"/>
<circle cx="514.1" cy="47.6" r="2.5" fill="#FFFFFF"/>
<line x1="523.4" y1="38.8" x2="517.2" y2="33.8" stroke="#FFFFFF" stroke-width="1.8"/>
<circle cx="517.2" cy="33.8" r="2.5" fill="#FFFFFF"/>
  <text x="530.0" y="84" text-anchor="middle" font-size="10px" font-weight="normal" font-style="normal" fill="#6B7280" font-family="Arial, Helvetica, sans-serif">Kubernetes</text>
  <rect x="735" y="20" width="225" height="48" rx="8" ry="8" fill="#FFFDE7" stroke="#E8D98E" stroke-width="1.5"/>
<text x="847.5" y="45" text-anchor="middle" font-size="14px" font-weight="bold" font-style="normal" fill="#1A1A1A" font-family="Arial, Helvetica, sans-serif">Workloads</text>
<text x="847.5" y="63" text-anchor="middle" font-size="10.5px" font-weight="normal" font-style="normal" fill="#6B7280" font-family="Arial, Helvetica, sans-serif">(Pods, Deploy, DaemonSet, StatefulSet)</text>
  <line x1="250" y1="44" x2="494.0" y2="44" stroke="#5B5B5B" stroke-width="2"/>
<polygon points="492.0,39 492.0,49 500.0,44" fill="#5B5B5B"/>
  <line x1="735" y1="44" x2="566.0" y2="44" stroke="#5B5B5B" stroke-width="2"/>
<polygon points="568.0,39 568.0,49 560.0,44" fill="#5B5B5B"/>
  <line x1="530.0" y1="86" x2="530.0" y2="106" stroke="#5B5B5B" stroke-width="2"/>
<polygon points="525.0,104 535.0,104 530.0,112" fill="#5B5B5B"/>
  <rect x="40" y="112" width="980" height="140" rx="14" ry="14" fill="#D6E4F7"/>
  <rect x="40" y="112" width="980" height="34" rx="10" ry="10" fill="#2E7DD6"/>
<rect x="40" y="136" width="980" height="10" rx="0" ry="0" fill="#2E7DD6"/>
<text x="530.0" y="135.0" text-anchor="middle" font-size="15px" font-weight="bold" font-style="normal" fill="#FFFFFF" font-family="Arial, Helvetica, sans-serif">Policy Management Layer (Manager)</text>
  <rect x="272.0" y="154" width="155" height="36" rx="8" ry="8" fill="#FFFFFF" stroke="#B8C9E0" stroke-width="1.5"/>
<text x="349.5" y="177.0" text-anchor="middle" font-size="12px" font-weight="normal" font-style="normal" fill="#1A1A1A" font-family="Arial, Helvetica, sans-serif">Policy CRD</text>
<rect x="445.0" y="154" width="175" height="36" rx="8" ry="8" fill="#FFFFFF" stroke="#B8C9E0" stroke-width="1.5"/>
<text x="532.5" y="177.0" text-anchor="middle" font-size="12px" font-weight="normal" font-style="normal" fill="#1A1A1A" font-family="Arial, Helvetica, sans-serif">Policy Controllers</text>
<rect x="638.0" y="154" width="150" height="36" rx="8" ry="8" fill="#FFFFFF" stroke="#B8C9E0" stroke-width="1.5"/>
<text x="713.0" y="177.0" text-anchor="middle" font-size="12px" font-weight="normal" font-style="normal" fill="#1A1A1A" font-family="Arial, Helvetica, sans-serif">Webhooks</text>
  <rect x="196.5" y="200" width="145" height="36" rx="8" ry="8" fill="#FFFFFF" stroke="#B8C9E0" stroke-width="1.5"/>
<text x="269.0" y="223.0" text-anchor="middle" font-size="12px" font-weight="normal" font-style="normal" fill="#1A1A1A" font-family="Arial, Helvetica, sans-serif">Status Manager</text>
<rect x="355.5" y="200" width="150" height="36" rx="8" ry="8" fill="#FFFFFF" stroke="#B8C9E0" stroke-width="1.5"/>
<text x="430.5" y="223.0" text-anchor="middle" font-size="12px" font-weight="normal" font-style="normal" fill="#1A1A1A" font-family="Arial, Helvetica, sans-serif">Profile Manager</text>
<rect x="519.5" y="200" width="175" height="36" rx="8" ry="8" fill="#FFFFFF" stroke="#B8C9E0" stroke-width="1.5"/>
<text x="607.0" y="223.0" text-anchor="middle" font-size="12px" font-weight="normal" font-style="normal" fill="#1A1A1A" font-family="Arial, Helvetica, sans-serif">Proxy Config Manager</text>
<rect x="708.5" y="200" width="155" height="36" rx="8" ry="8" fill="#FFFFFF" stroke="#B8C9E0" stroke-width="1.5"/>
<text x="786.0" y="223.0" text-anchor="middle" font-size="12px" font-weight="normal" font-style="normal" fill="#1A1A1A" font-family="Arial, Helvetica, sans-serif">Webhook Manager</text>
  <line x1="530.0" y1="252" x2="530.0" y2="264" stroke="#5B5B5B" stroke-width="2"/>
<polygon points="525.0,262 535.0,262 530.0,270" fill="#5B5B5B"/>
  <rect x="40" y="270" width="980" height="88" rx="14" ry="14" fill="#D6E4F7"/>
  <rect x="40" y="270" width="980" height="34" rx="10" ry="10" fill="#5BA0E0"/>
<rect x="40" y="294" width="980" height="10" rx="0" ry="0" fill="#5BA0E0"/>
<text x="530.0" y="293.0" text-anchor="middle" font-size="15px" font-weight="bold" font-style="normal" fill="#FFFFFF" font-family="Arial, Helvetica, sans-serif">Core Engine Layer (Agent)</text>
  <rect x="198.5" y="312" width="160" height="36" rx="8" ry="8" fill="#FFFFFF" stroke="#B8C9E0" stroke-width="1.5"/>
<text x="278.5" y="335.0" text-anchor="middle" font-size="12px" font-weight="normal" font-style="normal" fill="#1A1A1A" font-family="Arial, Helvetica, sans-serif">Runtime Monitor</text>
<rect x="374.5" y="312" width="165" height="36" rx="8" ry="8" fill="#FFFFFF" stroke="#B8C9E0" stroke-width="1.5"/>
<text x="457.0" y="335.0" text-anchor="middle" font-size="12px" font-weight="normal" font-style="normal" fill="#1A1A1A" font-family="Arial, Helvetica, sans-serif">Enforcer Manager</text>
<rect x="555.5" y="312" width="130" height="36" rx="8" ry="8" fill="#FFFFFF" stroke="#B8C9E0" stroke-width="1.5"/>
<text x="620.5" y="335.0" text-anchor="middle" font-size="12px" font-weight="normal" font-style="normal" fill="#1A1A1A" font-family="Arial, Helvetica, sans-serif">Auditor</text>
<rect x="701.5" y="312" width="160" height="36" rx="8" ry="8" fill="#FFFFFF" stroke="#B8C9E0" stroke-width="1.5"/>
<text x="781.5" y="335.0" text-anchor="middle" font-size="12px" font-weight="normal" font-style="normal" fill="#1A1A1A" font-family="Arial, Helvetica, sans-serif">Behavior Modeller</text>
  <line x1="303.0" y1="358" x2="303.0" y2="372" stroke="#5B5B5B" stroke-width="2"/>
<polygon points="298.0,370 308.0,370 303.0,378" fill="#5B5B5B"/>
  <line x1="804.0" y1="358" x2="804.0" y2="372" stroke="#5B5B5B" stroke-width="2"/>
<polygon points="799.0,370 809.0,370 804.0,378" fill="#5B5B5B"/>
  <rect x="40" y="378" width="526" height="120" rx="14" ry="14" fill="#D6E4F7"/>
  <rect x="40" y="378" width="526" height="34" rx="10" ry="10" fill="#7BB8EC"/>
<rect x="40" y="402" width="526" height="10" rx="0" ry="0" fill="#7BB8EC"/>
<text x="303.0" y="401.0" text-anchor="middle" font-size="15px" font-weight="bold" font-style="normal" fill="#FFFFFF" font-family="Arial, Helvetica, sans-serif">Enforcement Layer (Linux Kernel)</text>
  <rect x="66.5" y="422" width="105" height="36" rx="8" ry="8" fill="#FFFFFF" stroke="#B8C9E0" stroke-width="1.5"/>
<text x="119.0" y="445.0" text-anchor="middle" font-size="12px" font-weight="normal" font-style="normal" fill="#1A1A1A" font-family="Arial, Helvetica, sans-serif">Seccomp</text>
<rect x="180.5" y="422" width="118" height="36" rx="8" ry="8" fill="#FFFFFF" stroke="#B8C9E0" stroke-width="1.5"/>
<text x="239.5" y="445.0" text-anchor="middle" font-size="12px" font-weight="normal" font-style="normal" fill="#1A1A1A" font-family="Arial, Helvetica, sans-serif">AppArmor / BPF</text>
<rect x="307.5" y="422" width="108" height="36" rx="8" ry="8" fill="#FFFFFF" stroke="#B8C9E0" stroke-width="1.5"/>
<text x="361.5" y="445.0" text-anchor="middle" font-size="12px" font-weight="normal" font-style="normal" fill="#1A1A1A" font-family="Arial, Helvetica, sans-serif">Audit System</text>
<rect x="424.5" y="422" width="115" height="36" rx="8" ry="8" fill="#FFFFFF" stroke="#B8C9E0" stroke-width="1.5"/>
<text x="482.0" y="445.0" text-anchor="middle" font-size="12px" font-weight="normal" font-style="normal" fill="#1A1A1A" font-family="Arial, Helvetica, sans-serif">Raw Tracepoint</text>
  <text x="303.0" y="488" text-anchor="middle" font-size="11px" font-weight="normal" font-style="italic" fill="#6B7280" font-family="Arial, Helvetica, sans-serif">Kernel space · per Node</text>
  <rect x="588" y="378" width="432" height="120" rx="14" ry="14" fill="#E0F2EE"/>
  <rect x="588" y="378" width="432" height="34" rx="10" ry="10" fill="#3DAA8E"/>
<rect x="588" y="402" width="432" height="10" rx="0" ry="0" fill="#3DAA8E"/>
<text x="804.0" y="401.0" text-anchor="middle" font-size="15px" font-weight="bold" font-style="normal" fill="#FFFFFF" font-family="Arial, Helvetica, sans-serif">Enforcement Layer (Network Proxy)</text>
  <rect x="613.5" y="422" width="120" height="36" rx="8" ry="8" fill="#FFFFFF" stroke="#B8C9E0" stroke-width="1.5"/>
<text x="673.5" y="445.0" text-anchor="middle" font-size="12px" font-weight="normal" font-style="normal" fill="#1A1A1A" font-family="Arial, Helvetica, sans-serif">Init Container</text>
<rect x="741.5" y="422" width="120" height="36" rx="8" ry="8" fill="#FFFFFF" stroke="#B8C9E0" stroke-width="1.5"/>
<text x="801.5" y="445.0" text-anchor="middle" font-size="12px" font-weight="normal" font-style="normal" fill="#1A1A1A" font-family="Arial, Helvetica, sans-serif">Envoy Sidecar</text>
<rect x="869.5" y="422" width="125" height="36" rx="8" ry="8" fill="#FFFFFF" stroke="#B8C9E0" stroke-width="1.5"/>
<text x="932.0" y="445.0" text-anchor="middle" font-size="12px" font-weight="normal" font-style="normal" fill="#1A1A1A" font-family="Arial, Helvetica, sans-serif">Policy ConfigMap</text>
  <text x="804.0" y="488" text-anchor="middle" font-size="11px" font-weight="normal" font-style="italic" fill="#6B7280" font-family="Arial, Helvetica, sans-serif">User space · per Pod</text>
  <line x1="70" y1="512" x2="990" y2="512" stroke="#6B7280" stroke-width="1" stroke-dasharray="6,4"/>
  <rect x="236.0" y="522" width="180" height="48" rx="8" ry="8" fill="#F0F7FF" stroke="#A8C8E8" stroke-width="1"/>
  <rect x="246.0" y="531" width="10" height="10" rx="2" ry="2" fill="#326CE5" opacity="0.7"/>
  <text x="331.0" y="541" text-anchor="middle" font-size="12px" font-weight="bold" font-style="normal" fill="#1A1A1A" font-family="Arial, Helvetica, sans-serif">Target Pod A</text>
  <text x="326.0" y="558" text-anchor="middle" font-size="9px" font-weight="normal" font-style="normal" fill="#6B7280" font-family="Arial, Helvetica, sans-serif">Kernel MAC (AppArmor/BPF)</text>
  <rect x="440.0" y="522" width="180" height="48" rx="8" ry="8" fill="#F0F7FF" stroke="#A8C8E8" stroke-width="1"/>
  <rect x="450.0" y="531" width="10" height="10" rx="2" ry="2" fill="#326CE5" opacity="0.7"/>
  <text x="535.0" y="541" text-anchor="middle" font-size="12px" font-weight="bold" font-style="normal" fill="#1A1A1A" font-family="Arial, Helvetica, sans-serif">Target Pod B</text>
  <text x="530.0" y="558" text-anchor="middle" font-size="9px" font-weight="normal" font-style="normal" fill="#6B7280" font-family="Arial, Helvetica, sans-serif">Kernel MAC + Seccomp</text>
  <rect x="644.0" y="522" width="180" height="48" rx="8" ry="8" fill="#F0F7FF" stroke="#A8C8E8" stroke-width="1"/>
  <rect x="654.0" y="531" width="10" height="10" rx="2" ry="2" fill="#326CE5" opacity="0.7"/>
  <text x="739.0" y="541" text-anchor="middle" font-size="12px" font-weight="bold" font-style="normal" fill="#1A1A1A" font-family="Arial, Helvetica, sans-serif">Target Pod C</text>
  <text x="734.0" y="558" text-anchor="middle" font-size="9px" font-weight="normal" font-style="normal" fill="#3DAA8E" font-family="Arial, Helvetica, sans-serif">Kernel MAC + Network Proxy</text>
  <text x="530.0" y="588" text-anchor="middle" font-size="11px" font-weight="normal" font-style="italic" fill="#6B7280" font-family="Arial, Helvetica, sans-serif">Protected Workloads</text>
</svg>