<svg id="图层_1" data-name="图层 1" xmlns="http://www.w3.org/2000/svg" viewBox="0 0 3574.23 700"><defs><style>.cls-1{fill:#fff;}.cls-2{fill:#008aff;}.cls-3{fill:#0050c1;}</style></defs><title>vArmor</title><path class="cls-1" d="M863,205.68h78.4l118.73,320.45,121-320.45h78.4L1093.65,609.86H1025.9Z"/><path class="cls-1" d="M1507.71,77.05h74.6L1797,609.86h-86l-165.17-427-162.89,427h-87.53Zm-98.19,328.06h274V479.7h-274Z"/><path class="cls-1" d="M1870.77,206.45h76.88v49.47q19.78-32,59.76-46.81t93.23-14.84V268.1q-44.91,0-79.54,12.56t-53.66,35q-19,22.47-19,51.38V609.86h-77.65Z"/><path class="cls-1" d="M2173,206.45h75.35v57.84q20.55-32.72,51.38-51T2373.89,195q38.82,0,70,19.79t54,53.28q12.16-20.55,33.49-36.92a176.92,176.92,0,0,1,49.48-26.26A171.45,171.45,0,0,1,2638,195q41.1,0,75,20.55a149.68,149.68,0,0,1,53.66,55.95q19.79,35.39,19.79,78V609.86H2708V377q0-29.68-10.27-53.29A85.7,85.7,0,0,0,2666.56,286q-20.94-14.08-52.14-14.08-27.4,0-48.72,14.46t-34.25,41.48q-12.94,27-12.94,62v220h-78.4V377q0-45.68-24-75.36T2348,271.91q-29.69,0-51.37,16t-33.5,42.63q-11.8,26.64-11.79,59.37v220H2173Z"/><path class="cls-1" d="M3062,622q-58.62,0-106.19-28.92t-75-78.79q-27.41-49.85-27.4-110,0-57.09,27.4-105.42a204.7,204.7,0,0,1,75-76.5q47.57-28.16,106.19-28.16t105.8,28.16a207.47,207.47,0,0,1,74.59,75.74q27.4,47.57,27.4,106.18,0,60.13-27.4,110t-74.59,78.79Q3120.58,622,3062,622Zm0-73.07q39.55,0,68.88-20.17a131.46,131.46,0,0,0,44.91-53.28,165,165,0,0,0,15.6-71.17,147.88,147.88,0,0,0-15.6-67,129,129,0,0,0-44.91-50.62q-29.31-19.41-68.88-19.41-38.83,0-68.89,19.41a126.29,126.29,0,0,0-45.67,51,148.37,148.37,0,0,0-15.6,66.6,164.73,164.73,0,0,0,15.6,71.17,131.31,131.31,0,0,0,44.91,53.28Q3021.63,549,3062,549Z"/><path class="cls-1" d="M3344.36,206.45h76.88v49.47Q3441,224,3481,209.11t93.24-14.84V268.1q-44.91,0-79.54,12.56t-53.66,35q-19,22.47-19,51.38V609.86h-77.64Z"/><polygon class="cls-2" points="0 539.08 171.63 700.06 171.63 565.41 0 404.44 0 539.08"/><path class="cls-3" d="M545-.06,373.66,160.64,371,292.83l79.53-74.6v68.29l-178,167-178.06-167V218.23L174,292.83l-2.65-132.19L0-.06V334S272.5,593.38,272.5,589.54C272.5,593.38,545,334,545,334Z"/><polygon class="cls-2" points="373.37 565.41 373.37 700.06 544.99 539.08 544.99 404.44 373.37 565.41"/></svg>